<?xml version="1.0" encoding="utf-8"?>
<!-- Generator: Adobe Illustrator 19.2.1, SVG Export Plug-In . SVG Version: 6.00 Build 0)  -->
<svg version="1.1" id="Layer_1" xmlns="http://www.w3.org/2000/svg" xmlns:xlink="http://www.w3.org/1999/xlink" x="0px" y="0px"
	 viewBox="0 0 396 35.5" style="enable-background:new 0 0 396 35.5;" xml:space="preserve">
<style type="text/css">
	.st0{fill:none;stroke:#F8C537;stroke-width:3;stroke-miterlimit:10;}


</style>
<path class="st0" d="M390,2.4c-4.5,0-6.9,1.7-9,3.2c-1.9,1.4-3.6,2.5-7,2.5c-3.5,0-5.1-1.2-7-2.5c-2.1-1.5-4.4-3.1-9-3.1
	c-4.5,0-6.9,1.7-9,3.1c-1.9,1.4-3.6,2.5-7,2.5c-3.5,0-5.1-1.2-7-2.5c-2.1-1.5-4.4-3.1-9-3.1c-4.5,0-6.9,1.7-9,3.1
	c-1.9,1.4-3.6,2.5-7,2.5c-3.5,0-5.1-1.2-7-2.5c-2.1-1.5-4.4-3.1-9-3.1c-4.5,0-6.9,1.7-9,3.1c-1.9,1.4-3.6,2.5-7,2.5
	c-3.5,0-5.1-1.2-7-2.5c-2.1-1.5-4.4-3.1-9-3.1c-4.5,0-6.9,1.7-9,3.1c-1.9,1.4-3.6,2.5-7,2.5c-3.5,0-5.1-1.2-7-2.5
	c-2.1-1.5-4.4-3.1-9-3.1c-4.5,0-6.9,1.7-9,3.1c-1.9,1.4-3.6,2.5-7,2.5c-3.5,0-5.1-1.2-7-2.5c-2.1-1.5-4.4-3.1-9-3.1
	c-4.5,0-6.9,1.7-9,3.1c-1.9,1.4-3.6,2.5-7,2.5c-3.5,0-5.1-1.2-7-2.5c-2.1-1.5-4.4-3.1-9-3.1c-4.5,0-6.9,1.7-9,3.1
	c-1.9,1.4-3.6,2.5-7,2.5c-3.5,0-5.1-1.2-7-2.5c-2.1-1.5-4.4-3.1-9-3.1c-4.5,0-6.9,1.7-9,3.1c-1.9,1.4-3.6,2.5-7,2.5
	c-3.5,0-5.1-1.2-7-2.5c-2.1-1.5-4.4-3.1-9-3.1c-4.5,0-6.9,1.7-9,3.1c-1.9,1.4-3.6,2.5-7,2.5c-3.5,0-5.1-1.2-7-2.5
	c-2.1-1.5-4.4-3.1-9-3.1c-4.5,0-6.9,1.7-9,3.1c-1.9,1.4-3.6,2.5-7,2.5c-3.5,0-5.1-1.2-7-2.5c-2.1-1.5-4.4-3.1-9-3.1
	c-4.5,0-6.9,1.7-9,3.1c-1.9,1.4-3.6,2.5-7,2.5c-3.5,0-5.1-1.2-7-2.5c-2.1-1.5-4.4-3.1-9-3.1"/>
<path class="st0" d="M390,14.3c-4.5,0-6.9,1.7-9,3.2c-1.9,1.4-3.6,2.5-7,2.5c-3.5,0-5.1-1.2-7-2.5c-2.1-1.5-4.4-3.1-9-3.1
	c-4.5,0-6.9,1.7-9,3.1c-1.9,1.4-3.6,2.5-7,2.5c-3.5,0-5.1-1.2-7-2.5c-2.1-1.5-4.4-3.1-9-3.1c-4.5,0-6.9,1.7-9,3.1
	c-1.9,1.4-3.6,2.5-7,2.5c-3.5,0-5.1-1.2-7-2.5c-2.1-1.5-4.4-3.1-9-3.1c-4.5,0-6.9,1.7-9,3.1c-1.9,1.4-3.6,2.5-7,2.5
	c-3.5,0-5.1-1.2-7-2.5c-2.1-1.5-4.4-3.1-9-3.1c-4.5,0-6.9,1.7-9,3.1c-1.9,1.4-3.6,2.5-7,2.5c-3.5,0-5.1-1.2-7-2.5
	c-2.1-1.5-4.4-3.1-9-3.1c-4.5,0-6.9,1.7-9,3.1c-1.9,1.4-3.6,2.5-7,2.5c-3.5,0-5.1-1.2-7-2.5c-2.1-1.5-4.4-3.1-9-3.1
	c-4.5,0-6.9,1.7-9,3.1c-1.9,1.4-3.6,2.5-7,2.5c-3.5,0-5.1-1.2-7-2.5c-2.1-1.5-4.4-3.1-9-3.1c-4.5,0-6.9,1.7-9,3.1
	c-1.9,1.4-3.6,2.5-7,2.5c-3.5,0-5.1-1.2-7-2.5c-2.1-1.5-4.4-3.1-9-3.1c-4.5,0-6.9,1.7-9,3.1c-1.9,1.4-3.6,2.5-7,2.5
	c-3.5,0-5.1-1.2-7-2.5c-2.1-1.5-4.4-3.1-9-3.1c-4.5,0-6.9,1.7-9,3.1c-1.9,1.4-3.6,2.5-7,2.5c-3.5,0-5.1-1.2-7-2.5
	c-2.1-1.5-4.4-3.1-9-3.1c-4.5,0-6.9,1.7-9,3.1c-1.9,1.4-3.6,2.5-7,2.5c-3.5,0-5.1-1.2-7-2.5c-2.1-1.5-4.4-3.1-9-3.1
	c-4.5,0-6.9,1.7-9,3.1c-1.9,1.4-3.6,2.5-7,2.5c-3.5,0-5.1-1.2-7-2.5c-2.1-1.5-4.4-3.1-9-3.1"/>
<path class="st0" d="M390,26.1c-4.5,0-6.9,1.7-9,3.2c-1.9,1.4-3.6,2.5-7,2.5c-3.5,0-5.1-1.2-7-2.5c-2.1-1.5-4.4-3.1-9-3.1
	c-4.5,0-6.9,1.7-9,3.1c-1.9,1.4-3.6,2.5-7,2.5c-3.5,0-5.1-1.2-7-2.5c-2.1-1.5-4.4-3.1-9-3.1c-4.5,0-6.9,1.7-9,3.1
	c-1.9,1.4-3.6,2.5-7,2.5c-3.5,0-5.1-1.2-7-2.5c-2.1-1.5-4.4-3.1-9-3.1c-4.5,0-6.9,1.7-9,3.1c-1.9,1.4-3.6,2.5-7,2.5
	c-3.5,0-5.1-1.2-7-2.5c-2.1-1.5-4.4-3.1-9-3.1c-4.5,0-6.9,1.7-9,3.1c-1.9,1.4-3.6,2.5-7,2.5c-3.5,0-5.1-1.2-7-2.5
	c-2.1-1.5-4.4-3.1-9-3.1c-4.5,0-6.9,1.7-9,3.1c-1.9,1.4-3.6,2.5-7,2.5c-3.5,0-5.1-1.2-7-2.5c-2.1-1.5-4.4-3.1-9-3.1
	c-4.5,0-6.9,1.7-9,3.1c-1.9,1.4-3.6,2.5-7,2.5c-3.5,0-5.1-1.2-7-2.5c-2.1-1.5-4.4-3.1-9-3.1c-4.5,0-6.9,1.7-9,3.1
	c-1.9,1.4-3.6,2.5-7,2.5c-3.5,0-5.1-1.2-7-2.5c-2.1-1.5-4.4-3.1-9-3.1c-4.5,0-6.9,1.7-9,3.1c-1.9,1.4-3.6,2.5-7,2.5
	c-3.5,0-5.1-1.2-7-2.5c-2.1-1.5-4.4-3.1-9-3.1c-4.5,0-6.9,1.7-9,3.1c-1.9,1.4-3.6,2.5-7,2.5c-3.5,0-5.1-1.2-7-2.5
	c-2.1-1.5-4.4-3.1-9-3.1c-4.5,0-6.9,1.7-9,3.1c-1.9,1.4-3.6,2.5-7,2.5c-3.5,0-5.1-1.2-7-2.5c-2.1-1.5-4.4-3.1-9-3.1
	c-4.5,0-6.9,1.7-9,3.1c-1.9,1.4-3.6,2.5-7,2.5c-3.5,0-5.1-1.2-7-2.5c-2.1-1.5-4.4-3.1-9-3.1"/>
</svg>
