<?xml version="1.0" encoding="utf-8"?>
<!-- Generator: Adobe Illustrator 19.2.1, SVG Export Plug-In . SVG Version: 6.00 Build 0)  -->
<svg version="1.1" id="Layer_1" xmlns="http://www.w3.org/2000/svg" xmlns:xlink="http://www.w3.org/1999/xlink" x="0px" y="0px"
	 viewBox="0 0 396 77.3" style="enable-background:new 0 0 396 77.3;" xml:space="preserve">
<style type="text/css">
	.st0{fill:none;stroke:#D8D31E;stroke-width:2;stroke-miterlimit:10;}

	<defs>
		<style>
		.st0 {
		stroke-dasharray: 838;
		stroke-dashoffset: 0;
		-webkit-animation dash 4s linear infinite;
		-o-animation:dash 4s linear infinite;
		-moz-animation: dash 4s linear infinite;
		animation: dash 4s alternate infinite;
		}
		@-webkit-keyframes dash{
		from {
		stroke-dashoffset: 838;
		}
		to{stroke-dashoffset: 0;}
			}
		repeatCount="indefinite"
		}
	</style>
</defs>

</style>
<path class="st0" d="M381,6.6c-1.9,1.4-3.6,2.5-7,2.5c-3.5,0-5.1-1.2-7-2.5c-2.1-1.5-4.4-3.1-9-3.1c-4.5,0-6.9,1.7-9,3.1
	c-1.9,1.4-3.6,2.5-7,2.5c-3.5,0-5.1-1.2-7-2.5c-2.1-1.5-4.4-3.1-9-3.1c-4.5,0-6.9,1.7-9,3.1c-1.9,1.4-3.6,2.5-7,2.5
	c-3.5,0-5.1-1.2-7-2.5c-2.1-1.5-4.4-3.1-9-3.1c-4.5,0-6.9,1.7-9,3.1c-1.9,1.4-3.6,2.5-7,2.5c-3.5,0-5.1-1.2-7-2.5
	c-2.1-1.5-4.4-3.1-9-3.1c-4.5,0-6.9,1.7-9,3.1c-1.9,1.4-3.6,2.5-7,2.5c-3.5,0-5.1-1.2-7-2.5c-2.1-1.5-4.4-3.1-9-3.1
	c-4.5,0-6.9,1.7-9,3.1c-1.9,1.4-3.6,2.5-7,2.5c-3.5,0-5.1-1.2-7-2.5c-2.1-1.5-4.4-3.1-9-3.1c-4.5,0-6.9,1.7-9,3.1
	c-1.9,1.4-3.6,2.5-7,2.5c-3.5,0-5.1-1.2-7-2.5c-2.1-1.5-4.4-3.1-9-3.1c-4.5,0-6.9,1.7-9,3.1c-1.9,1.4-3.6,2.5-7,2.5
	c-3.5,0-5.1-1.2-7-2.5c-2.1-1.5-4.4-3.1-9-3.1c-4.5,0-6.9,1.7-9,3.1c-1.9,1.4-3.6,2.5-7,2.5c-3.5,0-5.1-1.2-7-2.5
	c-2.1-1.5-4.4-3.1-9-3.1c-4.5,0-6.9,1.7-9,3.1c-1.9,1.4-3.6,2.5-7,2.5c-3.5,0-5.1-1.2-7-2.5c-2.1-1.5-4.4-3.1-9-3.1
	c-4.5,0-6.9,1.7-9,3.1c-1.9,1.4-3.6,2.5-7,2.5c-3.5,0-5.1-1.2-7-2.5c-2.1-1.5-4.4-3.1-9-3.1c-4.5,0-6.9,1.7-9,3.1
	c-1.9,1.4-3.6,2.5-7,2.5c-3.5,0-5.1-1.2-7-2.5c-2.1-1.5-4.4-3.1-9-3.1v3.3c3.5,0,5.1,1.2,7,2.5c2.1,1.5,4.4,3.1,9,3.1
	c4.5,0,6.9-1.7,9-3.1c1.9-1.4,3.6-2.5,7-2.5c3.5,0,5.1,1.2,7,2.5c2.1,1.5,4.4,3.1,9,3.1s6.9-1.7,9-3.1c1.9-1.4,3.6-2.5,7-2.5
	c3.5,0,5.1,1.2,7,2.5c2.1,1.5,4.4,3.1,9,3.1c4.5,0,6.9-1.7,9-3.1c1.9-1.4,3.6-2.5,7-2.5c3.5,0,5.1,1.2,7,2.5c2.1,1.5,4.4,3.1,9,3.1
	c4.5,0,6.9-1.7,9-3.1c1.9-1.4,3.6-2.5,7-2.5c3.5,0,5.1,1.2,7,2.5c2.1,1.5,4.4,3.1,9,3.1c4.5,0,6.9-1.7,9-3.1c1.9-1.4,3.6-2.5,7-2.5
	c3.5,0,5.1,1.2,7,2.5c2.1,1.5,4.4,3.1,9,3.1s6.9-1.7,9-3.1c1.9-1.4,3.6-2.5,7-2.5c3.5,0,5.1,1.2,7,2.5c2.1,1.5,4.4,3.1,9,3.1
	c4.5,0,6.9-1.7,9-3.1c1.9-1.4,3.6-2.5,7-2.5c3.5,0,5.1,1.2,7,2.5c2.1,1.5,4.4,3.1,9,3.1c4.5,0,6.9-1.7,9-3.1c1.9-1.4,3.6-2.5,7-2.5
	c3.5,0,5.1,1.2,7,2.5c2.1,1.5,4.4,3.1,9,3.1s6.9-1.7,9-3.1c1.9-1.4,3.6-2.5,7-2.5c3.5,0,5.1,1.2,7,2.5c2.1,1.5,4.4,3.1,9,3.1
	c4.5,0,6.9-1.7,9-3.1c1.9-1.4,3.6-2.5,7-2.5c3.5,0,5.1,1.2,7,2.5c2.1,1.5,4.4,3.1,9,3.1c4.5,0,6.9-1.7,9-3.1c1.9-1.4,3.6-2.5,7-2.5
	c3.5,0,5.1,1.2,7,2.5c2.1,1.5,4.4,3.1,9,3.1s6.9-1.7,9-3.1c1.9-1.4,3.6-2.5,7-2.5V3.4C385.5,3.4,383.1,5.1,381,6.6z"/>
<path class="st0" d="M381,22.3c-1.9,1.4-3.6,2.5-7,2.5c-3.5,0-5.1-1.2-7-2.5c-2.1-1.5-4.4-3.1-9-3.1c-4.5,0-6.9,1.7-9,3.1
	c-1.9,1.4-3.6,2.5-7,2.5c-3.5,0-5.1-1.2-7-2.5c-2.1-1.5-4.4-3.1-9-3.1c-4.5,0-6.9,1.7-9,3.1c-1.9,1.4-3.6,2.5-7,2.5
	c-3.5,0-5.1-1.2-7-2.5c-2.1-1.5-4.4-3.1-9-3.1c-4.5,0-6.9,1.7-9,3.1c-1.9,1.4-3.6,2.5-7,2.5c-3.5,0-5.1-1.2-7-2.5
	c-2.1-1.5-4.4-3.1-9-3.1c-4.5,0-6.9,1.7-9,3.1c-1.9,1.4-3.6,2.5-7,2.5c-3.5,0-5.1-1.2-7-2.5c-2.1-1.5-4.4-3.1-9-3.1
	c-4.5,0-6.9,1.7-9,3.1c-1.9,1.4-3.6,2.5-7,2.5c-3.5,0-5.1-1.2-7-2.5c-2.1-1.5-4.4-3.1-9-3.1v0c-4.5,0-6.9,1.7-9,3.1
	c-1.9,1.4-3.6,2.5-7,2.5c-3.5,0-5.1-1.2-7-2.5c-2.1-1.5-4.4-3.1-9-3.1c-4.5,0-6.9,1.7-9,3.1c-1.9,1.4-3.6,2.5-7,2.5
	c-3.5,0-5.1-1.2-7-2.5c-2.1-1.5-4.4-3.1-9-3.1c-4.5,0-6.9,1.7-9,3.1c-1.9,1.4-3.6,2.5-7,2.5c-3.5,0-5.1-1.2-7-2.5
	c-2.1-1.5-4.4-3.1-9-3.1v0c-4.5,0-6.9,1.7-9,3.1c-1.9,1.4-3.6,2.5-7,2.5c-3.5,0-5.1-1.2-7-2.5c-2.1-1.5-4.4-3.1-9-3.1
	c-4.5,0-6.9,1.7-9,3.1c-1.9,1.4-3.6,2.5-7,2.5c-3.5,0-5.1-1.2-7-2.5c-2.1-1.5-4.4-3.1-9-3.1c-4.5,0-6.9,1.7-9,3.1
	c-1.9,1.4-3.6,2.5-7,2.5c-3.5,0-5.1-1.2-7-2.5c-2.1-1.5-4.4-3.1-9-3.1v3.3c3.5,0,5.1,1.2,7,2.5c2.1,1.5,4.4,3.1,9,3.1
	c4.5,0,6.9-1.7,9-3.1c1.9-1.4,3.6-2.5,7-2.5c3.5,0,5.1,1.2,7,2.5c2.1,1.5,4.4,3.1,9,3.1s6.9-1.7,9-3.1c1.9-1.4,3.6-2.5,7-2.5
	c3.5,0,5.1,1.2,7,2.5c2.1,1.5,4.4,3.1,9,3.1c4.5,0,6.9-1.7,9-3.1c1.9-1.4,3.6-2.5,7-2.5v0c3.5,0,5.1,1.2,7,2.5
	c2.1,1.5,4.4,3.1,9,3.1c4.5,0,6.9-1.7,9-3.1c1.9-1.4,3.6-2.5,7-2.5c3.5,0,5.1,1.2,7,2.5c2.1,1.5,4.4,3.1,9,3.1c4.5,0,6.9-1.7,9-3.1
	c1.9-1.4,3.6-2.5,7-2.5c3.5,0,5.1,1.2,7,2.5c2.1,1.5,4.4,3.1,9,3.1s6.9-1.7,9-3.1c1.9-1.4,3.6-2.5,7-2.5v0c3.5,0,5.1,1.2,7,2.5
	c2.1,1.5,4.4,3.1,9,3.1c4.5,0,6.9-1.7,9-3.1c1.9-1.4,3.6-2.5,7-2.5c3.5,0,5.1,1.2,7,2.5c2.1,1.5,4.4,3.1,9,3.1c4.5,0,6.9-1.7,9-3.1
	c1.9-1.4,3.6-2.5,7-2.5c3.5,0,5.1,1.2,7,2.5c2.1,1.5,4.4,3.1,9,3.1s6.9-1.7,9-3.1c1.9-1.4,3.6-2.5,7-2.5v0c3.5,0,5.1,1.2,7,2.5
	c2.1,1.5,4.4,3.1,9,3.1c4.5,0,6.9-1.7,9-3.1c1.9-1.4,3.6-2.5,7-2.5c3.5,0,5.1,1.2,7,2.5c2.1,1.5,4.4,3.1,9,3.1c4.5,0,6.9-1.7,9-3.1
	c1.9-1.4,3.6-2.5,7-2.5c3.5,0,5.1,1.2,7,2.5c2.1,1.5,4.4,3.1,9,3.1s6.9-1.7,9-3.1c1.9-1.4,3.6-2.5,7-2.5v-3.3
	C385.5,19.2,383.1,20.9,381,22.3z"/>
<path class="st0" d="M381,38.1c-1.9,1.4-3.6,2.5-7,2.5c-3.5,0-5.1-1.2-7-2.5c-2.1-1.5-4.4-3.1-9-3.1c-4.5,0-6.9,1.7-9,3.1
	c-1.9,1.4-3.6,2.5-7,2.5c-3.5,0-5.1-1.2-7-2.5c-2.1-1.5-4.4-3.1-9-3.1c-4.5,0-6.9,1.7-9,3.1c-1.9,1.4-3.6,2.5-7,2.5
	c-3.5,0-5.1-1.2-7-2.5c-2.1-1.5-4.4-3.1-9-3.1c-4.5,0-6.9,1.7-9,3.1c-1.9,1.4-3.6,2.5-7,2.5c-3.5,0-5.1-1.2-7-2.5
	c-2.1-1.5-4.4-3.1-9-3.1c-4.5,0-6.9,1.7-9,3.1c-1.9,1.4-3.6,2.5-7,2.5c-3.5,0-5.1-1.2-7-2.5c-2.1-1.5-4.4-3.1-9-3.1
	c-4.5,0-6.9,1.7-9,3.1c-1.9,1.4-3.6,2.5-7,2.5c-3.5,0-5.1-1.2-7-2.5c-2.1-1.5-4.4-3.1-9-3.1v0c-4.5,0-6.9,1.7-9,3.1
	c-1.9,1.4-3.6,2.5-7,2.5c-3.5,0-5.1-1.2-7-2.5c-2.1-1.5-4.4-3.1-9-3.1c-4.5,0-6.9,1.7-9,3.1c-1.9,1.4-3.6,2.5-7,2.5
	c-3.5,0-5.1-1.2-7-2.5c-2.1-1.5-4.4-3.1-9-3.1c-4.5,0-6.9,1.7-9,3.1c-1.9,1.4-3.6,2.5-7,2.5c-3.5,0-5.1-1.2-7-2.5
	c-2.1-1.5-4.4-3.1-9-3.1v0c-4.5,0-6.9,1.7-9,3.1c-1.9,1.4-3.6,2.5-7,2.5c-3.5,0-5.1-1.2-7-2.5c-2.1-1.5-4.4-3.1-9-3.1
	c-4.5,0-6.9,1.7-9,3.1c-1.9,1.4-3.6,2.5-7,2.5c-3.5,0-5.1-1.2-7-2.5c-2.1-1.5-4.4-3.1-9-3.1c-4.5,0-6.9,1.7-9,3.1
	c-1.9,1.4-3.6,2.5-7,2.5c-3.5,0-5.1-1.2-7-2.5c-2.1-1.5-4.4-3.1-9-3.1v3.3c3.5,0,5.1,1.2,7,2.5c2.1,1.5,4.4,3.1,9,3.1
	c4.5,0,6.9-1.7,9-3.1c1.9-1.4,3.6-2.5,7-2.5c3.5,0,5.1,1.2,7,2.5c2.1,1.5,4.4,3.1,9,3.1s6.9-1.7,9-3.1c1.9-1.4,3.6-2.5,7-2.5
	c3.5,0,5.1,1.2,7,2.5c2.1,1.5,4.4,3.1,9,3.1c4.5,0,6.9-1.7,9-3.1c1.9-1.4,3.6-2.5,7-2.5v0c3.5,0,5.1,1.2,7,2.5
	c2.1,1.5,4.4,3.1,9,3.1c4.5,0,6.9-1.7,9-3.1c1.9-1.4,3.6-2.5,7-2.5c3.5,0,5.1,1.2,7,2.5c2.1,1.5,4.4,3.1,9,3.1c4.5,0,6.9-1.7,9-3.1
	c1.9-1.4,3.6-2.5,7-2.5c3.5,0,5.1,1.2,7,2.5c2.1,1.5,4.4,3.1,9,3.1s6.9-1.7,9-3.1c1.9-1.4,3.6-2.5,7-2.5v0c3.5,0,5.1,1.2,7,2.5
	c2.1,1.5,4.4,3.1,9,3.1c4.5,0,6.9-1.7,9-3.1c1.9-1.4,3.6-2.5,7-2.5c3.5,0,5.1,1.2,7,2.5c2.1,1.5,4.4,3.1,9,3.1c4.5,0,6.9-1.7,9-3.1
	c1.9-1.4,3.6-2.5,7-2.5c3.5,0,5.1,1.2,7,2.5c2.1,1.5,4.4,3.1,9,3.1s6.9-1.7,9-3.1c1.9-1.4,3.6-2.5,7-2.5c3.5,0,5.1,1.2,7,2.5
	c2.1,1.5,4.4,3.1,9,3.1c4.5,0,6.9-1.7,9-3.1c1.9-1.4,3.6-2.5,7-2.5c3.5,0,5.1,1.2,7,2.5c2.1,1.5,4.4,3.1,9,3.1c4.5,0,6.9-1.7,9-3.1
	c1.9-1.4,3.6-2.5,7-2.5c3.5,0,5.1,1.2,7,2.5c2.1,1.5,4.4,3.1,9,3.1s6.9-1.7,9-3.1c1.9-1.4,3.6-2.5,7-2.5V35
	C385.5,35,383.1,36.7,381,38.1z"/>
<path class="st0" d="M381,53.9c-1.9,1.4-3.6,2.5-7,2.5c-3.5,0-5.1-1.2-7-2.5c-2.1-1.5-4.4-3.1-9-3.1c-4.5,0-6.9,1.7-9,3.1
	c-1.9,1.4-3.6,2.5-7,2.5c-3.5,0-5.1-1.2-7-2.5c-2.1-1.5-4.4-3.1-9-3.1c-4.5,0-6.9,1.7-9,3.1c-1.9,1.4-3.6,2.5-7,2.5
	c-3.5,0-5.1-1.2-7-2.5c-2.1-1.5-4.4-3.1-9-3.1c-4.5,0-6.9,1.7-9,3.1c-1.9,1.4-3.6,2.5-7,2.5c-3.5,0-5.1-1.2-7-2.5
	c-2.1-1.5-4.4-3.1-9-3.1c-4.5,0-6.9,1.7-9,3.1c-1.9,1.4-3.6,2.5-7,2.5c-3.5,0-5.1-1.2-7-2.5c-2.1-1.5-4.4-3.1-9-3.1
	c-4.5,0-6.9,1.7-9,3.1c-1.9,1.4-3.6,2.5-7,2.5c-3.5,0-5.1-1.2-7-2.5c-2.1-1.5-4.4-3.1-9-3.1v0c-4.5,0-6.9,1.7-9,3.1
	c-1.9,1.4-3.6,2.5-7,2.5c-3.5,0-5.1-1.2-7-2.5c-2.1-1.5-4.4-3.1-9-3.1c-4.5,0-6.9,1.7-9,3.1c-1.9,1.4-3.6,2.5-7,2.5
	c-3.5,0-5.1-1.2-7-2.5c-2.1-1.5-4.4-3.1-9-3.1c-4.5,0-6.9,1.7-9,3.1c-1.9,1.4-3.6,2.5-7,2.5c-3.5,0-5.1-1.2-7-2.5
	c-2.1-1.5-4.4-3.1-9-3.1v0c-4.5,0-6.9,1.7-9,3.1c-1.9,1.4-3.6,2.5-7,2.5c-3.5,0-5.1-1.2-7-2.5c-2.1-1.5-4.4-3.1-9-3.1
	c-4.5,0-6.9,1.7-9,3.1c-1.9,1.4-3.6,2.5-7,2.5c-3.5,0-5.1-1.2-7-2.5c-2.1-1.5-4.4-3.1-9-3.1c-4.5,0-6.9,1.7-9,3.1
	c-1.9,1.4-3.6,2.5-7,2.5c-3.5,0-5.1-1.2-7-2.5c-2.1-1.5-4.4-3.1-9-3.1v3.3c3.5,0,5.1,1.2,7,2.5c2.1,1.5,4.4,3.1,9,3.1
	c4.5,0,6.9-1.7,9-3.1c1.9-1.4,3.6-2.5,7-2.5c3.5,0,5.1,1.2,7,2.5c2.1,1.5,4.4,3.1,9,3.1s6.9-1.7,9-3.1c1.9-1.4,3.6-2.5,7-2.5
	c3.5,0,5.1,1.2,7,2.5c2.1,1.5,4.4,3.1,9,3.1c4.5,0,6.9-1.7,9-3.1c1.9-1.4,3.6-2.5,7-2.5v0c3.5,0,5.1,1.2,7,2.5
	c2.1,1.5,4.4,3.1,9,3.1c4.5,0,6.9-1.7,9-3.1c1.9-1.4,3.6-2.5,7-2.5c3.5,0,5.1,1.2,7,2.5c2.1,1.5,4.4,3.1,9,3.1c4.5,0,6.9-1.7,9-3.1
	c1.9-1.4,3.6-2.5,7-2.5c3.5,0,5.1,1.2,7,2.5c2.1,1.5,4.4,3.1,9,3.1s6.9-1.7,9-3.1c1.9-1.4,3.6-2.5,7-2.5v0c3.5,0,5.1,1.2,7,2.5
	c2.1,1.5,4.4,3.1,9,3.1c4.5,0,6.9-1.7,9-3.1c1.9-1.4,3.6-2.5,7-2.5c3.5,0,5.1,1.2,7,2.5c2.1,1.5,4.4,3.1,9,3.1c4.5,0,6.9-1.7,9-3.1
	c1.9-1.4,3.6-2.5,7-2.5c3.5,0,5.1,1.2,7,2.5c2.1,1.5,4.4,3.1,9,3.1s6.9-1.7,9-3.1c1.9-1.4,3.6-2.5,7-2.5c3.5,0,5.1,1.2,7,2.5
	c2.1,1.5,4.4,3.1,9,3.1c4.5,0,6.9-1.7,9-3.1c1.9-1.4,3.6-2.5,7-2.5c3.5,0,5.1,1.2,7,2.5c2.1,1.5,4.4,3.1,9,3.1c4.5,0,6.9-1.7,9-3.1
	c1.9-1.4,3.6-2.5,7-2.5c3.5,0,5.1,1.2,7,2.5c2.1,1.5,4.4,3.1,9,3.1s6.9-1.7,9-3.1c1.9-1.4,3.6-2.5,7-2.5v-3.3
	C385.5,50.8,383.1,52.4,381,53.9z"/>
<path class="st0" d="M381,69.7c-1.9,1.4-3.6,2.5-7,2.5c-3.5,0-5.1-1.2-7-2.5c-2.1-1.5-4.4-3.1-9-3.1c-4.5,0-6.9,1.7-9,3.1
	c-1.9,1.4-3.6,2.5-7,2.5c-3.5,0-5.1-1.2-7-2.5c-2.1-1.5-4.4-3.1-9-3.1c-4.5,0-6.9,1.7-9,3.1c-1.9,1.4-3.6,2.5-7,2.5
	c-3.5,0-5.1-1.2-7-2.5c-2.1-1.5-4.4-3.1-9-3.1c-4.5,0-6.9,1.7-9,3.1c-1.9,1.4-3.6,2.5-7,2.5c-3.5,0-5.1-1.2-7-2.5
	c-2.1-1.5-4.4-3.1-9-3.1c-4.5,0-6.9,1.7-9,3.1c-1.9,1.4-3.6,2.5-7,2.5c-3.5,0-5.1-1.2-7-2.5c-2.1-1.5-4.4-3.1-9-3.1
	c-4.5,0-6.9,1.7-9,3.1c-1.9,1.4-3.6,2.5-7,2.5c-3.5,0-5.1-1.2-7-2.5c-2.1-1.5-4.4-3.1-9-3.1v0c-4.5,0-6.9,1.7-9,3.1
	c-1.9,1.4-3.6,2.5-7,2.5c-3.5,0-5.1-1.2-7-2.5c-2.1-1.5-4.4-3.1-9-3.1c-4.5,0-6.9,1.7-9,3.1c-1.9,1.4-3.6,2.5-7,2.5
	c-3.5,0-5.1-1.2-7-2.5c-2.1-1.5-4.4-3.1-9-3.1c-4.5,0-6.9,1.7-9,3.1c-1.9,1.4-3.6,2.5-7,2.5c-3.5,0-5.1-1.2-7-2.5
	c-2.1-1.5-4.4-3.1-9-3.1v0c-4.5,0-6.9,1.7-9,3.1c-1.9,1.4-3.6,2.5-7,2.5c-3.5,0-5.1-1.2-7-2.5c-2.1-1.5-4.4-3.1-9-3.1
	c-4.5,0-6.9,1.7-9,3.1c-1.9,1.4-3.6,2.5-7,2.5c-3.5,0-5.1-1.2-7-2.5c-2.1-1.5-4.4-3.1-9-3.1c-4.5,0-6.9,1.7-9,3.1
	c-1.9,1.4-3.6,2.5-7,2.5c-3.5,0-5.1-1.2-7-2.5c-2.1-1.5-4.4-3.1-9-3.1v3.3c3.5,0,5.1,1.2,7,2.5c2.1,1.5,4.4,3.1,9,3.1
	c4.5,0,6.9-1.7,9-3.1c1.9-1.4,3.6-2.5,7-2.5c3.5,0,5.1,1.2,7,2.5c2.1,1.5,4.4,3.1,9,3.1s6.9-1.7,9-3.1c1.9-1.4,3.6-2.5,7-2.5
	c3.5,0,5.1,1.2,7,2.5c2.1,1.5,4.4,3.1,9,3.1c4.5,0,6.9-1.7,9-3.1c1.9-1.4,3.6-2.5,7-2.5v0c3.5,0,5.1,1.2,7,2.5
	c2.1,1.5,4.4,3.1,9,3.1c4.5,0,6.9-1.7,9-3.1c1.9-1.4,3.6-2.5,7-2.5c3.5,0,5.1,1.2,7,2.5c2.1,1.5,4.4,3.1,9,3.1c4.5,0,6.9-1.7,9-3.1
	c1.9-1.4,3.6-2.5,7-2.5c3.5,0,5.1,1.2,7,2.5c2.1,1.5,4.4,3.1,9,3.1s6.9-1.7,9-3.1c1.9-1.4,3.6-2.5,7-2.5v0c3.5,0,5.1,1.2,7,2.5
	c2.1,1.5,4.4,3.1,9,3.1c4.5,0,6.9-1.7,9-3.1c1.9-1.4,3.6-2.5,7-2.5c3.5,0,5.1,1.2,7,2.5c2.1,1.5,4.4,3.1,9,3.1c4.5,0,6.9-1.7,9-3.1
	c1.9-1.4,3.6-2.5,7-2.5c3.5,0,5.1,1.2,7,2.5c2.1,1.5,4.4,3.1,9,3.1s6.9-1.7,9-3.1c1.9-1.4,3.6-2.5,7-2.5c3.5,0,5.1,1.2,7,2.5
	c2.1,1.5,4.4,3.1,9,3.1c4.5,0,6.9-1.7,9-3.1c1.9-1.4,3.6-2.5,7-2.5c3.5,0,5.1,1.2,7,2.5c2.1,1.5,4.4,3.1,9,3.1c4.5,0,6.9-1.7,9-3.1
	c1.9-1.4,3.6-2.5,7-2.5c3.5,0,5.1,1.2,7,2.5c2.1,1.5,4.4,3.1,9,3.1s6.9-1.7,9-3.1c1.9-1.4,3.6-2.5,7-2.5v-3.3
	C385.5,66.6,383.1,68.2,381,69.7z"/>
</svg>
