<?xml version="1.0" encoding="utf-8"?>
<!-- Generator: Adobe Illustrator 19.2.1, SVG Export Plug-In . SVG Version: 6.00 Build 0)  -->
<svg version="1.1" id="Layer_1" xmlns="http://www.w3.org/2000/svg" xmlns:xlink="http://www.w3.org/1999/xlink" x="0px" y="0px"
	viewBox="0 0 311.8 8.9" style="enable-background:new 0 0 311.8 8.9;" xml:space="preserve">
	<style type="text/css">
		.st0{fill:none;stroke:#F8C537;stroke-width:3;stroke-miterlimit:10;}

		<defs>
			<style>
				.st0 {
				stroke-dasharray: 350;
				stroke-dashoffset: 0;
				-webkit-animation dash 1.55s linear infinite;
				-o-animation:dash 1.55s linear infinite;
				-moz-animation: dash 1.55s linear infinite;
				animation: dash 1.55s alternate infinite;
				}
				@-webkit-keyframes dash{
				from {
				stroke-dashoffset: 350;
				}
				to{stroke-dashoffset: 0;}
				}
				repeatCount="indefinite"
				}
			</style>
		</defs>

	</style>
	<path class="st0" d="M311.8,1.5c-4.5,0-6.9,1.7-9,3.2c-1.9,1.4-3.6,2.5-7,2.5c-3.5,0-5.1-1.2-7-2.5c-2.1-1.5-4.4-3.1-9-3.1
		c-4.5,0-6.9,1.7-9,3.1c-1.9,1.4-3.6,2.5-7,2.5c-3.5,0-5.1-1.2-7-2.5c-2.1-1.5-4.4-3.1-9-3.1c-4.5,0-6.9,1.7-9,3.1
		c-1.9,1.4-3.6,2.5-7,2.5c-3.5,0-5.1-1.2-7-2.5c-2.1-1.5-4.4-3.1-9-3.1c-4.5,0-6.9,1.7-9,3.1c-1.9,1.4-3.6,2.5-7,2.5
		c-3.5,0-5.1-1.2-7-2.5c-2.1-1.5-4.4-3.1-9-3.1c-4.5,0-6.9,1.7-9,3.1c-1.9,1.4-3.6,2.5-7,2.5c-3.5,0-5.1-1.2-7-2.5
		c-2.1-1.5-4.4-3.1-9-3.1c-4.5,0-6.9,1.7-9,3.1c-1.9,1.4-3.6,2.5-7,2.5c-3.5,0-5.1-1.2-7-2.5c-2.1-1.5-4.4-3.1-9-3.1
		c-4.5,0-6.9,1.7-9,3.1c-1.9,1.4-3.6,2.5-7,2.5c-3.5,0-5.1-1.2-7-2.5c-2.1-1.5-4.4-3.1-9-3.1c-4.5,0-6.9,1.7-9,3.1
		c-1.9,1.4-3.6,2.5-7,2.5c-3.5,0-5.1-1.2-7-2.5c-2.1-1.5-4.4-3.1-9-3.1c-4.5,0-6.9,1.7-9,3.1c-1.9,1.4-3.6,2.5-7,2.5
		c-3.5,0-5.1-1.2-7-2.5c-2.1-1.5-4.4-3.1-9-3.1c-4.5,0-6.9,1.7-9,3.1c-1.9,1.4-3.6,2.5-7,2.5c-3.5,0-5.1-1.2-7-2.5"/>
	</svg>
